<?xml version="1.0" standalone="no"?><!DOCTYPE svg PUBLIC "-//W3C//DTD SVG 1.1//EN" "http://www.w3.org/Graphics/SVG/1.1/DTD/svg11.dtd"><svg t="1632967595742" class="icon" viewBox="0 0 1024 1024" version="1.1" xmlns="http://www.w3.org/2000/svg" p-id="20060" xmlns:xlink="http://www.w3.org/1999/xlink" width="200" height="200"><defs><style type="text/css"></style></defs><path d="M782.33599999 919.552L677.376 660.48000001c-6.656-16.384-18.432-28.672-31.744-33.79200001-1.024-0.512-2.048-1.024-3.584-2.048l-118.784-57.344 28.16-148.992c2.56 0.512 5.12 1.02399999 8.192 1.024l171.008-1e-8c19.968 0 36.352-16.384 36.352-36.352 0-19.968-16.384-36.352-36.352-36.352l-165.376 1e-8 9.728-52.224c7.168-38.4-17.92-75.264-56.32-82.944-6.656-1.536-13.31200001-1.536-19.968-1.024-2.048 0-4.608 0-6.656 0.512L276.48 259.072c-0.512 0-1.024 0.512-1.536 0.512-14.336 2.048-24.576 12.79999999-24.576 25.6l0 126.464c-7.68 3.072-13.31200001 9.216-15.36 17.40800001l-5.632 24.57599999 15.872 3.58399999 5.632-24.57599999c0.512-1.536 1.536-3.072 2.56000001-4.096 4.608 9.216 15.36 15.36 27.64799999 15.36 8.704 0 16.384-3.072 22.016-8.192l0.512 0c5.12 1.02399999 8.192 6.144 6.656 10.752L304.128 471.04l15.872 3.584 5.632-24.576c3.072-12.288-3.584-24.576-15.36-29.18400001 0-1.02399999 0.512-2.048 0.512-3.07199999l0-101.888 121.344-26.624-49.152 259.584c-6.65600001 33.792 12.288 66.56 43.52000001 78.848 1.024 0.512 1.536 1.024 2.55999999 1.024l11.776 5.632L363.52 734.20799999l-134.144-80.38399999c-19.456-11.776-44.032-5.12-55.808 13.824-11.776 19.456-5.12 44.032 13.824 55.808l171.52 102.4c13.312 7.68 28.672 7.168 40.96 1e-8 6.65600001-2.56 12.79999999-6.656 17.408-12.28800002l107.51999999-138.75199999 75.77600002 36.352c3.072 1.536 6.65600001 2.56 9.72799999 3.584l95.232 235.52c11.264 27.648 37.376 43.008 58.368 34.304 21.504-8.192 29.696-37.376 18.43199999-65.024zM567.808 196.096c37.37599999 0 68.096-28.672 68.09600001-64s-30.208-64.512-68.09600001-64.512c-37.37599999 0-68.096 28.672-68.096 64.512 0 35.32800001 30.72 64 68.096 64z" fill="#1296db" p-id="20061"></path><path d="M263.16799999 512c11.77600001 2.56 19.968 12.288 21.50400001 23.03999999l89.088 20.99200001 8.192-34.81599999c3.58399999-15.872-6.144-31.744-22.01599999-35.32800001l-172.03200001-40.96c-15.872-3.58399999-31.744 6.144-35.328 22.016L144.384 501.76l89.088 20.992c6.656-8.704 17.92-13.312 29.69599999-10.752z" fill="#1296db" p-id="20062"></path><path d="M276.59241999 545.672633a20.992 19.456 13.32 1 0-40.85456799-9.67267 20.992 19.456 13.32 1 0 40.85456799 9.67267Z" fill="#1296db" p-id="20063"></path><path d="M353.792 642.048l17.92-76.288-87.552-20.48c0 1.02399999-0.512 2.048-0.512 2.56-3.584 14.336-18.432 23.552-33.792 19.968-15.36-3.58399999-24.576-18.43200001-20.992-32.768 0-1.02399999 0.512-2.048 1.024-2.56000001l-87.552-20.47999999-17.92 76.288c-3.58399999 15.872 6.144 31.744 22.016 35.32799999l172.032 40.96000001c15.36 3.072 31.232-6.65600001 35.328-22.528z" fill="#1296db" p-id="20064"></path></svg>